<?xml version="1.0" encoding="utf-8"?>
<!-- Generator: Adobe Illustrator 27.2.0, SVG Export Plug-In . SVG Version: 6.00 Build 0)  -->
<svg version="1.1" id="Layer_1" xmlns="http://www.w3.org/2000/svg" xmlns:xlink="http://www.w3.org/1999/xlink" x="0px" y="0px"
	 viewBox="0 0 256 256" style="enable-background:new 0 0 256 256;" xml:space="preserve">
<style type="text/css">
	.st0{fill:url(#SVGID_1_);stroke:#3A3D59;stroke-width:0.5;stroke-miterlimit:10;}
	.st1{fill:#F2F4FC;}
	.st2{fill:#D1D6FC;}
</style>
<g>
	<linearGradient id="SVGID_1_" gradientUnits="userSpaceOnUse" x1="213.1715" y1="-19.5163" x2="42.5684" y2="275.977">
		<stop  offset="0" style="stop-color:#619FFF"/>
		<stop  offset="1" style="stop-color:#483CF4"/>
	</linearGradient>
	<path class="st0" d="M243.6,256.5H12.1c-6.9,0-12.5-5.6-12.5-12.5V12.5C-0.4,5.6,5.2,0,12.1,0h231.5c6.9,0,12.5,5.6,12.5,12.5V244
		C256.1,250.9,250.5,256.5,243.6,256.5z"/>
	<g>
		<path class="st1" d="M127.9,157.5l62.5-22.8c2.2-0.8,3.9-2.6,4.5-4.9l6.2-22.2l-73.2,26.7V157.5l45.4-16.5L127.9,157.5z"/>
		<path class="st1" d="M133.4,101.7v18.9L209,93.1c2.2-0.8,3.9-2.6,4.5-4.9l6.2-22.2l-82.4,30C135,96.9,133.4,99.2,133.4,101.7z"/>
		<path class="st1" d="M133.4,190.4l35.9-13.1c2.2-0.8,3.9-2.6,4.5-4.9l6.2-22.1l-42.6,15.5c-2.4,0.9-4,3.1-4,5.7V190.4z"/>
		<path class="st2" d="M127.9,157.5l-62.5-22.8c-2.2-0.8-3.9-2.6-4.5-4.9l-6.2-22.2l73.2,26.7V157.5L82.4,141L127.9,157.5z"/>
		<path class="st2" d="M122.3,101.7v18.9L46.7,93.1c-2.2-0.8-3.9-2.6-4.5-4.9L36,66.1l82.4,30C120.7,96.9,122.3,99.2,122.3,101.7z"
			/>
		<path class="st2" d="M122.3,190.4l-35.9-13.1c-2.2-0.8-3.9-2.6-4.5-4.9l-6.2-22.1l42.6,15.5c2.4,0.9,4,3.1,4,5.7V190.4z"/>
	</g>
</g>
</svg>
