<?xml version="1.0" encoding="utf-8"?>
<!-- Generator: Adobe Illustrator 27.2.0, SVG Export Plug-In . SVG Version: 6.00 Build 0)  -->
<svg version="1.1" id="Layer_1" xmlns="http://www.w3.org/2000/svg" xmlns:xlink="http://www.w3.org/1999/xlink" x="0px" y="0px"
	 viewBox="0 0 66.23 17.74" style="enable-background:new 0 0 66.23 17.74;" xml:space="preserve">
<g>
	<path d="M5.78,13.73c-1.28,0-1.72-0.63-1.92-0.63c-0.12,0-0.17,0.13-0.17,0.51v1.16c0,0.78,0.36,1,0.72,1.26
		c0.3,0.21,0.69,0.35,0.69,0.76c0,0.32-0.18,0.54-0.71,0.54c-0.47,0-1.41-0.05-1.93-0.05c-0.63,0-1.21,0.05-1.87,0.05
		c-0.45,0-0.6-0.23-0.6-0.5c0-0.41,0.34-0.61,0.52-0.78c0.45-0.48,0.52-0.95,0.52-1.43V6.9c0-0.54-0.34-0.76-0.62-0.88
		C0.22,5.91,0.06,5.79,0.06,5.54c0-0.47,0.57-0.55,1.28-0.86c0.9-0.41,1.15-0.62,1.48-0.62c0.34,0,0.53,0.15,0.66,0.62
		c0.07,0.36,0.13,0.74,0.28,0.74c0.21,0,0.97-1.41,2.78-1.41c2.25,0,3.49,1.91,3.49,4.57C10.04,11.72,8.15,13.73,5.78,13.73z
		 M3.65,8.84c0,2.78,0.77,3.33,1.67,3.33c0.93,0,1.85-0.88,1.85-3.19c0-2.26-0.77-3.14-1.75-3.14C4.53,5.83,3.65,6.77,3.65,8.84z"/>
	<path d="M14.62,8v2.89c0,0.73,0.15,1.03,0.66,1.42c0.3,0.23,0.83,0.32,0.83,0.75c0,0.31-0.17,0.53-0.71,0.53
		c-0.53,0-1.16-0.05-2.07-0.05c-0.63,0-1.01,0.05-1.8,0.05c-0.45,0-0.6-0.23-0.6-0.51c0-0.4,0.34-0.6,0.52-0.77
		c0.45-0.48,0.51-0.96,0.51-1.43V6.9c0-0.54-0.33-0.76-0.61-0.88c-0.19-0.12-0.36-0.24-0.36-0.49c0-0.47,0.57-0.55,1.27-0.86
		c0.91-0.41,1.16-0.62,1.48-0.62c0.34,0,0.53,0.15,0.66,0.62c0.07,0.36,0.13,0.74,0.29,0.74c0.2,0,1.09-1.41,2.57-1.41
		c0.9,0,1.76,0.53,1.76,2c0,1.01-0.74,2.05-1.65,2.05c-0.61,0-0.64-0.38-0.77-1.01c-0.12-0.58-0.36-0.9-0.68-0.9
		C15.19,6.14,14.62,7.11,14.62,8z"/>
	<path d="M24.01,4.01c2.55,0,4.84,1.83,4.84,5.11c0,3.09-2.14,4.62-4.73,4.62c-2.88,0-4.74-2.01-4.74-4.78
		C19.38,6.03,21.33,4.01,24.01,4.01z M22.23,7.97c0,0.86,0.14,1.95,0.53,2.79c0.41,0.87,1.07,1.28,1.72,1.28
		c0.85,0,1.64-0.62,1.64-2.24c0-0.94-0.25-2.1-0.63-2.92c-0.47-0.96-1.11-1.44-1.73-1.44C22.96,5.45,22.23,6.14,22.23,7.97z"/>
	<path d="M36.42,12.76c-0.1-0.14-0.16-0.29-0.27-0.29c-0.08,0-0.2,0.15-0.41,0.34c-0.41,0.38-1.13,0.91-2.33,0.91
		c-1.85,0-3.55-1.47-3.55-4.57c0-3.36,1.74-5.15,3.85-5.15c1.63,0,2.2,1,2.35,1c0.09,0,0.15-0.13,0.15-0.75V2.93
		c0-0.5-0.33-0.78-0.61-0.91c-0.19-0.11-0.4-0.23-0.4-0.48c0-0.44,0.57-0.53,1.29-0.82C37.39,0.36,37.95,0,38.36,0
		c0.36,0,0.59,0.18,0.59,0.61c0,0.98-0.08,1.09-0.08,3.49v6.85c0,0.36,0.16,0.76,0.56,0.76c0.19,0,0.29-0.06,0.42-0.06
		c0.1,0,0.19,0.14,0.19,0.35c0,0.97-0.86,1.71-1.92,1.71C37.3,13.7,36.81,13.45,36.42,12.76z M36.25,8.77c0-2.48-0.9-3.24-1.74-3.24
		c-0.97,0-1.78,0.87-1.78,3.08c0,2.12,0.73,3.2,1.87,3.2C35.53,11.81,36.25,11.09,36.25,8.77z"/>
	<path d="M44.46,8.06v2.95c0,0.73,0.15,1,0.42,1.29c0.27,0.28,0.58,0.34,0.58,0.76c0,0.31-0.18,0.53-0.71,0.53s-1.07-0.05-1.59-0.05
		c-0.63,0-1.01,0.05-1.8,0.05c-0.45,0-0.6-0.23-0.6-0.51c0-0.4,0.35-0.6,0.52-0.77c0.46-0.48,0.52-0.96,0.52-1.43V7.17
		c0-0.58-0.28-0.91-0.58-1.07c-0.19-0.13-0.42-0.27-0.42-0.53c0-0.5,0.59-0.54,1.3-0.83c0.9-0.36,1.54-0.73,1.86-0.73
		c0.39,0,0.59,0.18,0.59,0.61C44.55,5.17,44.46,6.15,44.46,8.06z M43.5,0.07c0.74,0,1.32,0.48,1.32,1.23c0,1.03-1.11,1.87-2.2,1.87
		c-0.79,0-1.16-0.45-1.16-1.06C41.45,1.11,42.44,0.07,43.5,0.07z"/>
	<path d="M53.67,4.39c1.38,0,1.58-0.37,1.97-0.37c0.21,0,0.33,0.18,0.33,0.51c0,0.32-0.07,0.69-0.18,0.96
		c-0.09,0.21-0.28,0.61-0.67,0.61c-0.42,0-0.8-0.14-0.95-0.14c-0.07,0-0.09,0.04-0.09,0.09c0,0.14,0.4,0.54,0.4,1.25
		c0,2.04-1.71,3.22-3.87,3.22c-0.36,0-0.75-0.06-1-0.06c-0.47,0-0.99,0.27-0.99,0.76c0,0.44,0.41,0.71,1.08,0.71
		s1.92-0.28,3.06-0.28c1.72,0,2.9,0.69,2.9,2.42c0,2.3-2.78,3.67-5.8,3.67c-2.59,0-3.78-0.88-3.78-2.24c0-0.87,0.63-1.46,1.23-1.73
		c0.1-0.06,0.14-0.11,0.14-0.16c0-0.04-0.03-0.08-0.12-0.14c-0.29-0.17-0.87-0.65-0.87-1.52c0-0.77,0.55-1.47,1.44-1.87
		c0.07-0.04,0.13-0.1,0.13-0.15c0-0.05-0.04-0.1-0.11-0.17c-0.65-0.51-1.16-1.34-1.16-2.45c0-2.17,1.73-3.3,3.78-3.3
		C51.79,4.02,52.97,4.39,53.67,4.39z M51.07,14.02c-0.65,0-1.5,0.09-1.89,0.22c-0.65,0.17-1.07,0.55-1.07,1.02
		c0,0.73,0.78,1.02,1.84,1.02c1.47,0,2.52-0.59,2.52-1.32C52.47,14.35,51.96,14.02,51.07,14.02z M50.69,9
		c0.76,0,1.36-0.49,1.36-1.56c0-0.76-0.36-2.04-1.47-2.04c-0.77,0-1.3,0.68-1.3,1.71C49.29,8.44,49.98,9,50.69,9z"/>
	<path d="M66.02,12.57c0,3.43-1.8,5.12-4.81,5.12c-2.5,0-3.84-1.24-3.84-2.38c0-0.74,0.58-1.19,1.06-1.19
		c0.28,0,0.43,0.24,0.59,0.52c0.35,0.65,0.93,1.47,2.2,1.47c1.31,0,2.23-1.17,2.23-3.15v-0.11c0-0.32-0.07-0.41-0.14-0.41
		c-0.05,0-0.18,0.12-0.29,0.23c-0.37,0.31-1.22,1-2.6,1c-2.2,0-3.06-1.45-3.06-3.36c0-1.33,0.2-3,0.2-3.48
		c0-0.52-0.13-0.77-0.39-1.02c-0.29-0.28-0.67-0.35-0.67-0.78c0-0.34,0.25-0.52,0.77-0.57c1.64-0.17,2.16-0.39,2.59-0.39
		c0.47,0,0.59,0.33,0.59,0.63c0,1.08-0.34,2.13-0.34,4.74c0,1.48,0.38,2.49,1.59,2.49c0.88,0,1.65-0.58,1.65-2.09V7.17
		c0-0.74-0.08-1.06-0.43-1.37c-0.25-0.26-0.55-0.36-0.55-0.77c0-0.33,0.23-0.5,0.72-0.56c1.34-0.14,2.25-0.4,2.59-0.4
		c0.42,0,0.55,0.3,0.55,0.62c0,0.61-0.21,1.06-0.21,2.64V12.57z"/>
</g>
</svg>
